<?xml version="1.0" encoding="UTF-8"?>
<svg width="52px" height="50px" viewBox="0 0 52 50" version="1.1" xmlns="http://www.w3.org/2000/svg" xmlns:xlink="http://www.w3.org/1999/xlink">
    <!-- Generator: Sketch 51.2 (57519) - http://www.bohemiancoding.com/sketch -->
    <title>DWM Logo</title>
    <desc>Created with Sketch.</desc>
    <defs></defs>
    <g id="Page-1" stroke="none" stroke-width="1" fill="none" fill-rule="evenodd">
        <g id="iPhone-X" transform="translate(-25.000000, -89.000000)" fill="#333333" fill-rule="nonzero">
            <path d="M50.9008134,136.681642 L50.0080115,133.182989 L51.8928156,133.182989 L50.9008134,136.681642 Z M26.2991604,126.885414 C25.207958,124.986145 27.2911625,124.186453 27.2911625,124.186453 C27.2911625,124.186453 27.2911625,124.486337 27.2911625,124.786222 C27.2911625,125.286029 27.489563,125.885798 28.0847642,125.98576 C28.0847642,125.98576 29.1759666,126.285644 30.0687685,125.785837 C30.1679687,125.685875 30.3663692,125.585914 30.4655694,125.485952 C30.9615704,124.986145 31.7551722,124.186453 31.8543724,122.886953 C31.8543724,122.68703 31.8543724,122.487107 31.8543724,122.287184 L31.8543724,117.788916 C31.8543724,116.689339 31.4575715,116.289493 31.4575715,116.289493 L28.9775662,113.790455 L31.2591711,111.49134 L31.4575715,111.291417 C31.6559719,111.091494 31.8543724,110.691648 31.8543724,109.991918 L31.8543724,106.19338 C31.8543724,105.093804 31.5567717,104.394073 31.5567717,104.294112 C30.6639698,101.994997 29.8703681,101.895035 28.878366,101.795074 C27.1919623,101.695112 27.3903628,103.794304 27.3903628,103.894265 C25.6047589,103.194535 25.9023595,101.695112 26.1999602,100.995382 C26.596761,100.095728 28.0847642,99.8958049 28.9775662,99.8958049 L28.9775662,99.1960744 C28.9775662,98.9961513 29.374367,98.6962668 29.6719677,98.6962668 C30.1679687,98.6962668 30.4655694,98.8961898 30.4655694,99.1960744 L30.4655694,100.395613 L32.8463745,100.395613 L32.8463745,101.095343 L32.8463745,102.094958 L32.8463745,102.89465 L34.6319784,102.89465 L34.8303788,100.695497 C34.8303788,100.695497 35.9215811,100.095728 37.1119837,99.6958819 C37.2111839,100.195689 37.3103841,100.995382 37.3103841,101.994997 L37.3103841,103.094573 C37.3103841,103.094573 35.7231807,104.494035 35.0287792,108.392534 L35.0287792,117.988839 C35.0287792,117.988839 36.8143831,133.482873 58.5392299,127.785067 L58.5392299,130.683951 C58.5392299,130.683951 47.4288059,134.482489 34.7311786,126.985375 L34.7311786,124.786222 L32.9455747,124.786222 L32.9455747,127.28526 L30.6639698,127.28526 L30.6639698,128.484798 C30.6639698,128.784682 30.2671689,128.984605 29.8703681,128.984605 C29.374367,128.984605 29.0767664,128.784682 29.0767664,128.484798 L29.0767664,127.785067 C27.2911625,128.084952 26.6959613,127.485183 26.2991604,126.885414 Z M34.6319784,94.4978832 C32.9455747,93.8981141 33.1439751,92.1987684 33.1439751,92.0988069 C33.2431754,90.1995382 34.7311786,89.4998076 35.3263799,89.4998076 C35.4255801,89.4998076 36.1199816,89.3998461 37.1119837,89.4998076 C38.7983873,89.6997306 39.591989,90.4994227 39.8895897,90.9992303 L40.980792,90.9992303 C41.5759933,89.8996536 43.0639965,89.8996536 43.0639965,89.8996536 C44.4527995,89.7996921 45.0480008,91.5989993 45.0480008,91.5989993 C44.3535993,91.5989993 43.758398,91.9988454 43.262397,92.3986915 C43.0639965,92.498653 42.6671957,92.898499 42.6671957,93.6981911 C42.6671957,94.9976908 43.3615972,95.8973444 43.3615972,95.8973444 C41.9727942,96.8969595 41.4767931,95.3975368 41.2783927,94.7977678 C41.4767931,97.2968056 41.7743937,104.094189 41.9727942,111.191456 C41.9727942,111.191456 42.0719944,111.591302 42.2703948,111.791225 L43.3615972,112.990763 L42.2703948,115.389839 C42.1711946,115.489801 42.1711946,115.689724 42.1711946,115.989609 C42.2703948,119.488262 42.1711946,122.886953 42.0719944,125.685875 C42.0719944,125.685875 39.6911893,124.786222 38.5999869,122.886953 C38.5999869,122.886953 38.7983873,119.988069 38.7983873,115.889647 C38.7983873,115.389839 38.5999869,114.989993 38.5007867,114.890032 L37.3103841,113.090725 L38.5007867,110.991533 C38.6991871,110.491725 38.7983873,110.091879 38.7983873,109.692033 C38.7983873,109.49211 38.7983873,109.292187 38.7983873,109.092264 C38.7983873,103.894265 38.5999869,98.2964207 38.1039858,94.6978063 C37.8063852,93.1983836 37.2111839,91.6989609 36.2191818,91.5989993 C36.2191818,91.5989993 35.2271796,91.3990763 34.8303788,92.1987684 C34.7311786,92.2987299 34.5327781,92.898499 34.7311786,93.3983066 C34.7311786,93.4982681 34.7311786,93.4982681 34.7311786,93.4982681 C34.929579,93.7981526 35.4255801,94.1979987 36.2191818,93.6981911 L36.5167824,93.4982681 C36.5167824,93.9980757 36.1199816,94.2979602 35.7231807,94.4978832 C35.2271796,94.6978063 34.8303788,94.5978447 34.6319784,94.4978832 Z M42.9647963,99.2960359 L42.9647963,97.3967671 C42.9647963,97.3967671 48.8176089,94.9976908 55.9600243,96.397152 L54.9680222,98.4963438 C54.9680222,98.4963438 47.3296057,97.6966517 42.9647963,99.2960359 Z M45.147201,133.982681 C45.2464012,133.882719 45.4448017,133.782758 45.4448017,133.882719 C45.4448017,133.882719 45.6432021,136.081873 43.4607974,136.081873 C43.4607974,136.081873 41.7743937,136.181834 41.2783927,134.082642 L40.5839912,134.082642 C40.5839912,134.482489 40.484791,135.282181 40.1871903,136.081873 C40.1871903,136.081873 40.0879901,136.58168 39.6911893,137.181449 C39.591989,137.281411 39.3935886,137.481334 39.2943884,137.681257 C39.2943884,137.681257 39.1951882,137.781218 39.1951882,137.781218 C38.5999869,138.380988 38.0047856,138.680872 37.707185,138.780834 C35.9215811,139.480564 34.0367771,138.281026 34.0367771,138.281026 C33.8383766,138.181065 33.6399762,138.081103 33.4415758,137.981141 C32.9455747,137.581295 32.2511732,136.881565 31.8543724,136.58168 C31.7551722,136.481719 31.7551722,136.481719 31.6559719,136.381757 C31.0607707,135.88195 30.2671689,135.082258 29.5727675,134.682412 C29.2751668,134.58245 29.0767664,134.382527 28.878366,134.382527 C28.878366,134.382527 28.7791657,134.382527 28.7791657,134.382527 C28.0847642,134.182604 27.5887632,134.382527 27.2911625,134.58245 C27.0927621,134.682412 26.9935619,134.782373 26.8943617,134.882335 C26.7951615,134.982296 26.6959613,135.182219 26.6959613,135.282181 C26.3983606,135.981911 26.6959613,136.58168 26.6959613,136.681642 C26.8943617,137.081488 27.2911625,137.381372 28.6799655,137.081488 C28.6799655,137.081488 28.4815651,137.781218 27.5887632,138.181065 C26.596761,138.480949 26.10076,138.181065 26.10076,138.181065 C25.6047589,137.88118 24.9103574,137.181449 25.0095576,135.382142 C25.0095576,135.382142 24.9103574,133.182989 26.9935619,132.183374 C27.0927621,132.183374 27.0927621,132.183374 27.0927621,132.183374 C27.2911625,132.083412 27.985564,131.883489 28.9775662,131.983451 C29.9695683,132.183374 31.4575715,132.783143 31.6559719,134.282566 L32.6479741,134.282566 C32.6479741,133.582835 32.9455747,132.383297 34.2351775,131.883489 C34.2351775,131.883489 34.8303788,131.683566 35.5247803,131.883489 C36.1199816,132.083412 36.7151828,132.483258 36.6159826,133.382912 C36.6159826,133.382912 34.929579,133.28295 34.8303788,134.782373 C34.8303788,134.782373 34.4335779,136.681642 36.4175822,136.881565 C36.9135833,136.981526 37.5087846,136.781603 38.1039858,136.081873 C38.3023863,135.781988 38.4015865,135.382142 38.4015865,135.082258 L38.5999869,130.683951 C38.5999869,130.683951 41.0799923,131.583605 41.873594,131.583605 C41.873594,131.583605 42.0719944,133.382912 42.7663959,134.082642 C42.8655961,134.282566 43.0639965,134.382527 43.262397,134.382527 C43.6591978,134.482489 44.3535993,134.482489 45.147201,133.982681 Z M58.7376303,93.9980757 C59.1344312,91.9988454 56.5552256,91.1991533 56.5552256,91.1991533 C56.5552256,91.1991533 57.1504269,89.3998461 58.5392299,89.4998076 C58.5392299,89.4998076 60.0272331,89.4998076 60.6224344,90.5993842 L61.7136367,90.5993842 C62.1104376,90.0995766 63.1024397,89.0999615 65.2848444,89 C65.3840446,89 65.9792459,89 66.5744472,89.199923 C67.4672491,89.4998076 68.5584515,90.2994997 68.6576517,91.9988454 C68.6576517,91.9988454 68.7568519,93.5982296 67.86405,94.3979217 C67.2688487,94.5978447 66.8720478,94.5978447 66.6736474,94.4978832 C66.2768465,94.2979602 65.7808455,93.9980757 65.6816453,93.3983066 L65.9792459,93.5982296 C67.0704483,94.1979987 67.4672491,93.4982681 67.6656495,93.098422 C67.6656495,92.7985375 67.6656495,92.498653 67.6656495,92.3986915 C67.3680489,91.0991918 66.0784461,91.2991148 66.0784461,91.2991148 C65.3840446,91.3990763 64.8880436,92.0988069 64.5904429,92.9984605 C64.3920425,94.1979987 64.1936421,95.8973444 63.9952416,97.8965747 C62.4080382,96.9969211 61.3168359,96.597075 60.8208348,96.4971135 C60.8208348,96.2971905 60.8208348,96.0972674 60.8208348,95.8973444 L60.8208348,95.7973829 L60.1264333,95.7973829 C59.4320318,97.0968826 58.0432288,102.294881 56.753626,106.693188 C56.257625,108.292572 55.6624237,110.191841 55.1664226,112.291033 C54.6704215,114.390224 54.1744205,116.589378 53.8768198,118.788531 C53.7776196,118.988454 53.7776196,119.088415 53.7776196,119.188377 C53.6784194,119.3883 53.6784194,119.588223 53.6784194,119.788146 C53.480019,121.187607 53.5792192,122.087261 53.6784194,122.587068 C53.6784194,122.68703 53.6784194,122.786991 53.6784194,122.786991 C53.7776196,123.086876 53.97602,123.286799 54.0752203,123.286799 C54.4720211,123.486722 54.7696218,123.486722 54.9680222,123.386761 C55.7616239,122.986915 55.7616239,122.287184 55.6624237,121.887338 C55.6624237,121.887338 55.6624237,121.787376 55.6624237,121.787376 C55.4640232,121.38753 55.1664226,121.087646 55.1664226,121.087646 C55.8608241,120.987684 56.257625,121.087646 56.6544258,121.287569 C56.753626,121.287569 57.3488273,121.687415 57.5472277,122.387145 C57.8448284,123.886568 57.2496271,124.786222 56.9520265,125.186068 C56.9520265,125.186068 56.9520265,125.286029 56.9520265,125.286029 C56.8528262,125.385991 56.8528262,125.385991 56.8528262,125.385991 C56.4560254,125.785837 55.5632235,126.485567 54.0752203,126.585529 C53.480019,126.585529 52.9840179,126.485567 52.587217,126.285644 C52.6864173,126.68549 52.7856175,127.185298 53.1824183,127.98499 C53.1824183,127.98499 52.2896164,127.585144 52.2896164,128.184913 L51.1984141,128.184913 L50.9008134,128.184913 L49.8096111,128.184913 C49.8096111,127.585144 48.9168091,127.98499 48.9168091,127.98499 C49.31361,127.185298 49.5120104,126.68549 49.5120104,126.285644 C49.0160094,126.485567 48.6192085,126.585529 48.0240072,126.585529 C46.536004,126.485567 45.6432021,125.785837 45.2464012,125.385991 C45.2464012,125.385991 45.2464012,125.385991 45.147201,125.286029 C45.147201,125.186068 45.147201,125.186068 45.147201,125.186068 C44.8496004,124.886183 44.2543991,123.886568 44.5519997,122.387145 C44.7504002,121.687415 45.3456014,121.38753 45.4448017,121.287569 C45.8416025,121.087646 46.2384034,120.987684 46.9328049,121.087646 C46.9328049,121.087646 46.536004,121.38753 46.4368038,121.787376 C46.4368038,121.787376 46.4368038,121.887338 46.4368038,121.887338 C46.4368038,122.187222 46.3376036,122.986915 47.1312053,123.386761 C47.3296057,123.486722 47.6272064,123.486722 48.0240072,123.286799 C48.0240072,123.186838 48.3216079,123.086876 48.4208081,122.786991 C48.4208081,122.68703 48.4208081,122.587068 48.4208081,122.587068 C48.5200083,122.087261 48.6192085,121.187607 48.4208081,119.888108 C48.4208081,119.688185 48.4208081,119.588223 48.4208081,119.488262 C48.4208081,119.288339 48.3216079,118.988454 48.3216079,118.788531 C46.9328049,109.991918 43.5599976,100.995382 43.5599976,100.995382 C43.5599976,100.89542 43.5599976,100.89542 43.5599976,100.89542 C43.9567984,100.595536 44.7504002,100.295651 46.0400029,100.295651 C46.0400029,100.395613 46.1392032,100.595536 46.2384034,100.89542 C46.2384034,100.89542 46.2384034,100.995382 46.2384034,100.995382 C46.3376036,101.295266 46.8336046,101.994997 48.5200083,102.89465 C48.5200083,102.89465 47.6272064,104.593996 47.8256068,105.693573 C48.8176089,108.892341 50.0080115,112.590917 50.4048123,113.890417 C50.4048123,113.990378 50.5040126,114.290263 50.9008134,114.290263 C50.9008134,114.290263 51.0000136,114.290263 51.0000136,114.290263 C51.0992138,114.190301 51.1984141,114.190301 51.2976143,113.990378 C51.2976143,113.890417 51.2976143,113.790455 51.2976143,113.790455 C51.6944151,112.490956 52.8848177,108.79238 53.97602,105.49365 C54.1744205,104.394073 53.2816185,102.694727 53.2816185,102.694727 C54.868822,101.994997 55.364823,101.195305 55.4640232,100.89542 C57.9440286,95.9973059 58.7376303,93.9980757 58.7376303,93.9980757 Z M76.9904696,135.382142 C77.0896698,137.181449 76.3952684,137.981141 75.8000671,137.88118 C75.8000671,137.88118 75.304066,138.181065 74.3120639,137.88118 C73.4192619,137.581295 73.2208615,136.781603 73.2208615,136.781603 C74.6096645,137.181449 75.0064654,136.781603 75.2048658,136.381757 C75.304066,136.381757 75.5024664,135.682027 75.2048658,134.982296 C75.2048658,134.782373 75.1056656,134.682412 75.0064654,134.58245 C74.9072651,134.382527 74.7088647,134.382527 74.6096645,134.282566 C74.3120639,134.082642 73.7168626,133.982681 73.1216613,134.082642 C73.0224611,134.082642 73.0224611,134.082642 73.0224611,134.082642 C72.8240607,134.082642 72.6256602,134.182604 72.3280596,134.382527 C71.6336581,134.782373 70.8400564,135.582065 70.2448551,136.081873 C70.1456549,136.181834 70.1456549,136.181834 70.0464547,136.281796 C69.6496538,136.58168 68.9552523,137.281411 68.4592513,137.681257 C68.2608508,137.781218 68.0624504,137.88118 67.86405,137.981141 C67.86405,137.981141 65.8800457,139.18068 64.1936421,138.480949 C63.8960414,138.380988 63.3008401,138.081103 62.7056389,137.481334 C62.7056389,137.481334 62.6064386,137.381372 62.6064386,137.381372 C62.4080382,137.281411 62.308838,137.081488 62.2096378,136.881565 C61.8128369,136.281796 61.7136367,135.781988 61.7136367,135.781988 C61.5152363,135.182219 61.3168359,134.58245 61.3168359,134.182604 L60.4240339,134.182604 C59.8288327,135.88195 58.4400297,135.781988 58.4400297,135.781988 C56.257625,135.88195 56.4560254,133.582835 56.4560254,133.582835 C56.6544258,133.782758 56.753626,133.882719 56.9520265,133.982681 C57.7456282,134.58245 58.4400297,134.482489 58.8368305,134.382527 C59.0352309,134.282566 59.2336314,134.182604 59.3328316,134.082642 C59.4320318,133.982681 59.4320318,133.882719 59.531232,133.782758 C59.8288327,133.382912 59.8288327,132.783143 59.8288327,132.783143 C59.6304322,127.885029 59.7296324,121.687415 59.8288327,115.789686 C59.8288327,115.489801 59.6304322,115.089955 59.6304322,115.089955 L58.3408294,112.890802 L59.7296324,111.191456 C59.8288327,110.991533 59.9280329,110.491725 59.9280329,110.491725 C60.0272331,107.592841 60.1264333,104.793919 60.2256335,102.394843 C61.6144365,103.594381 63.3008401,105.593611 63.3008401,105.593611 C63.2016399,106.893111 63.2016399,108.392534 63.2016399,109.791995 C63.2016399,109.791995 63.2016399,110.091879 63.3008401,110.291802 C63.7968412,111.291417 64.5904429,112.79084 64.5904429,112.79084 L63.3008401,115.189916 C63.3008401,115.189916 63.2016399,115.389839 63.2016399,115.689724 C63.2016399,118.188762 63.2016399,120.487877 63.2016399,122.487107 C63.2016399,123.286799 63.2016399,124.086491 63.2016399,124.886183 L63.3008401,128.584759 L63.3008401,129.684336 L63.3008401,131.083797 L63.4992406,134.482489 L63.4992406,135.082258 C63.4992406,135.382142 63.5984408,135.781988 63.7968412,136.081873 C64.3920425,136.781603 64.9872438,136.881565 65.4832448,136.881565 C67.4672491,136.681642 67.0704483,134.782373 67.0704483,134.782373 C66.971248,133.28295 65.2848444,133.382912 65.2848444,133.382912 C65.1856442,132.483258 65.8800457,132.083412 66.3760468,131.883489 C67.0704483,131.683566 67.6656495,131.883489 67.6656495,131.883489 C68.9552523,132.283335 69.252853,133.582835 69.252853,134.282566 L70.2448551,134.282566 C70.5424557,132.683181 71.9312587,132.183374 72.9232609,131.983451 C73.915263,131.883489 74.6096645,132.083412 74.8080649,132.183374 C74.9072651,132.183374 74.9072651,132.183374 74.9072651,132.183374 C77.0896698,133.083027 76.9904696,135.382142 76.9904696,135.382142 Z M64.3920425,100.395613 C65.6816453,101.595151 67.7648498,103.594381 69.6496538,105.993457 L69.6496538,107.792764 L71.0384568,107.792764 C72.0304589,109.092264 72.8240607,110.391764 73.5184622,111.691264 C73.5184622,111.691264 73.7168626,111.991148 74.1136634,112.09111 C74.3120639,112.09111 74.5104643,112.09111 74.7088647,112.09111 C74.7088647,112.09111 76.0976677,111.991148 75.7008669,110.491725 C75.7008669,110.491725 75.8992673,110.491725 76.1968679,110.691648 C76.2960681,110.79161 76.2960681,110.891571 76.3952684,110.991533 C76.5936688,111.291417 76.7920692,111.891187 76.5936688,112.590917 C76.4944686,113.190686 75.9984675,113.790455 74.5104643,113.690494 C74.6096645,113.790455 74.6096645,113.990378 74.6096645,114.09034 C74.6096645,114.190301 74.6096645,114.390224 74.5104643,114.490186 C75.6016666,114.290263 76.0976677,114.690109 76.3952684,115.089955 C76.3952684,115.089955 76.7920692,115.589763 76.4944686,116.789301 C76.2960681,117.688954 75.6016666,117.688954 75.6016666,117.688954 C75.9984675,116.08957 74.6096645,115.989609 74.6096645,115.989609 C74.3120639,115.989609 74.1136634,116.08957 73.915263,116.08957 C73.6176624,116.289493 73.4192619,116.589378 73.3200617,116.689339 C72.6256602,117.988839 71.7328583,119.288339 70.8400564,120.487877 L69.748854,120.487877 L69.748854,121.887338 C67.7648498,124.186453 65.7808455,126.085721 64.4912427,127.385221 L64.4912427,122.886953 C65.6816453,120.287954 66.475247,116.389455 66.475247,116.389455 C66.475247,116.289493 66.475247,116.189532 66.475247,115.989609 C66.5744472,115.989609 66.5744472,115.989609 66.6736474,115.989609 C67.9632502,115.989609 68.9552523,114.989993 68.9552523,113.690494 C68.9552523,112.390994 67.9632502,111.391379 66.6736474,111.391379 C66.6736474,111.391379 66.5744472,111.391379 66.475247,111.391379 C66.3760468,110.891571 65.7808455,108.092649 64.8880436,105.893496 C64.8880436,105.793534 64.5904429,105.293727 64.1936421,104.593996 C64.0944418,104.494035 64.0944418,104.394073 63.9952416,104.294112 C63.8960414,104.294112 63.8960414,104.19415 63.8960414,104.19415 C62.5072384,101.994997 61.0192352,101.095343 60.2256335,100.695497 C60.2256335,99.5959204 60.3248337,98.6962668 60.3248337,97.8965747 C62.1104376,98.5963053 64.3920425,100.395613 64.3920425,100.395613 Z" id="DWM-Logo"></path>
        </g>
    </g>
</svg>